<?xml version="1.0" ?><svg id="Layer_1" style="enable-background:new 0 0 512 512;" version="1.1" viewBox="0 0 512 512" xml:space="preserve" xmlns="http://www.w3.org/2000/svg" xmlns:xlink="http://www.w3.org/1999/xlink"><style type="text/css">
	.st0{fill:#50ABC4;stroke:#414042;stroke-width:20;stroke-miterlimit:10;}
	.st1{fill:#AEDEEF;}
	.st2{fill:#5FC7E6;}
	.st3{fill:#5FC5E5;stroke:#414042;stroke-width:16;stroke-miterlimit:10;}
	.st4{fill:#FBEC7D;stroke:#414042;stroke-width:16;stroke-miterlimit:10;}
	.st5{fill:none;stroke:#414042;stroke-width:20;stroke-linecap:round;stroke-miterlimit:10;}
	.st6{fill:#414042;}
	.st7{fill:none;stroke:#414042;stroke-width:10;stroke-linecap:round;stroke-linejoin:round;stroke-miterlimit:10;}
</style><circle class="st0" cx="292" cy="268.6" id="XMLID_2_" r="195.1"/><path class="st1" d="M475.5,265.5c0,95.9-54.1,164.9-151.4,178.5c-96.5,13.5-201.6-82.6-201.6-178.5  S201.5,82.3,299,82.3S475.5,169.6,475.5,265.5z" id="XMLID_21_"/><path class="st2" d="M465.6,269.3c0,97.3-53.5,167.3-149.8,181.1c-95.5,13.7-199.4-83.8-199.4-181.1  S194.7,83.2,291.1,82.2C404.4,81.1,465.6,172.1,465.6,269.3z" id="XMLID_20_"/><circle class="st3" cx="382.3" cy="103.1" id="XMLID_6_" r="40.3"/><circle class="st4" cx="337.3" cy="455.3" id="XMLID_7_" r="22.6"/><line class="st5" id="XMLID_8_" x1="72.3" x2="289.3" y1="207.2" y2="207.2"/><line class="st5" id="XMLID_9_" x1="251.6" x2="364.9" y1="259.2" y2="259.2"/><line class="st5" id="XMLID_10_" x1="26.5" x2="270.7" y1="315.2" y2="315.2"/><line class="st5" id="XMLID_11_" x1="262.8" x2="479.8" y1="355.2" y2="355.2"/><circle class="st6" cx="294.6" cy="315.2" id="XMLID_12_" r="9.5"/><circle class="st6" cx="319.7" cy="207.2" id="XMLID_13_" r="7.9"/><circle class="st6" cx="392.3" cy="259.2" id="XMLID_14_" r="11.3"/><path class="st7" d="M161.7,363.6c0,11.6,7.5,21,16.7,21" id="XMLID_15_"/><circle class="st6" cx="207.6" cy="50.2" id="XMLID_16_" r="5"/><circle class="st6" cx="351.3" cy="45.2" id="XMLID_17_" r="5"/><circle class="st6" cx="439.3" cy="121.2" id="XMLID_18_" r="5"/><circle class="st6" cx="422.6" cy="33.9" id="XMLID_19_" r="7.7"/></svg>